<svg xmlns="http://www.w3.org/2000/svg" xmlns:xlink="http://www.w3.org/1999/xlink" viewBox="0 0 100 100"><defs><style>.cls-1{fill:#2c0b60;}.cls-2{fill:url(#Unbenannter_Verlauf_135);}.cls-3{fill:url(#Unbenannter_Verlauf_26);}.cls-4{fill:url(#Unbenannter_Verlauf_53);}.cls-5{fill:url(#Unbenannter_Verlauf_40);}.cls-6{fill:url(#Unbenannter_Verlauf_35);}.cls-7{fill:url(#Unbenannter_Verlauf_40-2);}</style><linearGradient id="Unbenannter_Verlauf_135" x1="740.98" y1="122.41" x2="740.98" y2="102.54" gradientTransform="translate(-719.38 -62.24)" gradientUnits="userSpaceOnUse"><stop offset="0" stop-color="#9181ac"/><stop offset="0.46" stop-color="#654e8a"/><stop offset="1" stop-color="#361866"/></linearGradient><linearGradient id="Unbenannter_Verlauf_26" x1="6.84" y1="106.58" x2="6.84" y2="-0.1" gradientUnits="userSpaceOnUse"><stop offset="0" stop-color="#68518d"/><stop offset="0.4" stop-color="#664e8b"/><stop offset="0.67" stop-color="#5e4586"/><stop offset="0.91" stop-color="#51367c"/><stop offset="1" stop-color="#4a2e77"/></linearGradient><linearGradient id="Unbenannter_Verlauf_53" x1="28.83" y1="81.71" x2="89.01" y2="21.53" gradientUnits="userSpaceOnUse"><stop offset="0" stop-color="#8674a4"/><stop offset="0.16" stop-color="#806d9f"/><stop offset="0.4" stop-color="#6e5892"/><stop offset="0.69" stop-color="#51367c"/><stop offset="1" stop-color="#2c0b60"/></linearGradient><linearGradient id="Unbenannter_Verlauf_40" x1="784.43" y1="135.71" x2="784.43" y2="90.88" gradientTransform="translate(-90.88 791.22) rotate(-90)" gradientUnits="userSpaceOnUse"><stop offset="0" stop-color="#68518d"/><stop offset="0.27" stop-color="#6a548f"/><stop offset="0.45" stop-color="#725d95"/><stop offset="0.61" stop-color="#806c9f"/><stop offset="0.76" stop-color="#9382ae"/><stop offset="0.9" stop-color="#ab9ec0"/><stop offset="1" stop-color="#c3b9d2"/></linearGradient><linearGradient id="Unbenannter_Verlauf_35" x1="53.7" y1="33.02" x2="108.21" y2="33.02" gradientUnits="userSpaceOnUse"><stop offset="0" stop-color="#c3b9d2"/><stop offset="0.18" stop-color="#a698bc"/><stop offset="0.75" stop-color="#4f337a"/><stop offset="1" stop-color="#2c0b60"/></linearGradient><linearGradient id="Unbenannter_Verlauf_40-2" x1="698.06" y1="135.71" x2="698.06" y2="90.88" gradientTransform="translate(-675.64 -20.13)" xlink:href="#Unbenannter_Verlauf_40"/></defs><title>Embed-Privacy-logo-final</title><g id="Ebene_2" data-name="Ebene 2"><g id="Zeichenfläche_2" data-name="Zeichenfläche 2"><g id="Ebene_6" data-name="Ebene 6"><rect class="cls-1" width="100" height="100"/><rect class="cls-2" x="14.76" y="40.31" width="13.68" height="19.87" transform="translate(-28.64 71.84) rotate(-90)"/><rect class="cls-3" width="13.68" height="100"/><rect class="cls-4" x="53.7" width="13.68" height="100"/><rect class="cls-5" width="44.83" height="13.58"/><path class="cls-6" d="M100,10.91a28,28,0,0,0-2.76-2.69C91.15,2.9,83.94.49,72.35,0H53.7V12.11H69.11c9.56,0,15.22,1.59,19.64,5.3C92.82,21,95.29,26.61,95.29,33c0,11.8-7.09,19.24-19.71,20.88V66c10.48-.83,18.8-4.46,24.42-10.41Z"/><rect class="cls-7" x="15.58" y="70.75" width="13.68" height="44.83" transform="translate(-70.75 115.58) rotate(-90)"/></g></g></g></svg>